<svg xmlns="http://www.w3.org/2000/svg" xmlns:xlink="http://www.w3.org/1999/xlink" viewBox="0 0 256.975 140.345"><defs><style>.cls-1{isolation:isolate;}.cls-2{fill:#eae6ff;}.cls-13,.cls-3{mix-blend-mode:multiply;}.cls-3{fill:url(#linear-gradient);}.cls-10,.cls-11,.cls-12,.cls-4{fill:none;}.cls-4{stroke:#0065ff;}.cls-10,.cls-11,.cls-12,.cls-4,.cls-5{stroke-miterlimit:10;}.cls-5{fill:#c0b6f2;stroke:#6554c0;stroke-width:2px;}.cls-6{fill:#c1c7d0;}.cls-7{fill:#344563;}.cls-8{fill:#4c9aff;}.cls-9{fill:#0065ff;}.cls-10,.cls-11,.cls-12{stroke:#a5adba;}.cls-11{stroke-dasharray:4.653 5.817;}.cls-12{stroke-dasharray:4.091 5.114;}.cls-13,.cls-14{fill:#dfe1e5;}.cls-15{fill:url(#linear-gradient-2);}.cls-16{fill:#ebecf0;}.cls-17{fill:#5243aa;}.cls-18{fill:#a5adba;}.cls-19{fill:#b2d4ff;}.cls-20{fill:#253858;}.cls-21{fill:#ffab00;}.cls-22{fill:#6554c0;}</style><linearGradient id="linear-gradient" x1="32.959" y1="87.044" x2="109.026" y2="10.977" gradientUnits="userSpaceOnUse"><stop offset="0" stop-color="#ebecf0" stop-opacity="0.1"/><stop offset="1" stop-color="#ebecf0"/></linearGradient><linearGradient id="linear-gradient-2" x1="133.273" y1="47.749" x2="197.784" y2="-16.762" gradientUnits="userSpaceOnUse"><stop offset="0" stop-color="#c1c7d0" stop-opacity="0.1"/><stop offset="1" stop-color="#c1c7d0"/></linearGradient></defs><title>Themes and styles</title><g class="cls-1"><g id="Layer_2" data-name="Layer 2"><g id="Layer_1-2" data-name="Layer 1"><polygon class="cls-2" points="9.097 30.742 9.097 129.33 58.295 129.33 90.096 129.33 139.295 129.33 139.295 30.742 9.097 30.742"/><path class="cls-3" d="M139.295,50.369c-36.941-3.213-58.127.489-70.768,4.65-2.487.819-5.694,2-10.958,3.393A162.17,162.17,0,0,1,9.1,63.182V41.246h130.2Z"/><line class="cls-4" x1="47.168" y1="124.388" x2="116.074" y2="124.388"/><line class="cls-4" x1="47.168" y1="119.269" x2="116.074" y2="119.269"/><line class="cls-4" x1="47.168" y1="46.864" x2="108.554" y2="46.864"/><line class="cls-4" x1="47.168" y1="51.983" x2="91.225" y2="51.983"/><rect class="cls-5" x="46.673" y="60.203" width="69.401" height="50.847"/><rect class="cls-6" x="9.097" y="30.742" width="130.198" height="10.504"/><circle class="cls-7" cx="17.475" cy="35.955" r="2.73"/><circle class="cls-8" cx="26.382" cy="35.955" r="2.73"/><circle class="cls-9" cx="35.288" cy="35.955" r="2.73"/><polyline class="cls-10" points="32.558 124.62 32.558 126.62 30.558 126.62"/><line class="cls-11" x1="24.741" y1="126.62" x2="17.18" y2="126.62"/><polyline class="cls-10" points="14.271 126.62 12.271 126.62 12.271 124.62"/><line class="cls-12" x1="12.271" y1="119.506" x2="12.271" y2="48.419"/><polyline class="cls-10" points="12.271 45.862 12.271 43.862 14.271 43.862"/><line class="cls-11" x1="20.088" y1="43.862" x2="27.65" y2="43.862"/><polyline class="cls-10" points="30.558 43.862 32.558 43.862 32.558 45.862"/><line class="cls-12" x1="32.558" y1="50.976" x2="32.558" y2="122.063"/><rect class="cls-13" x="103.84" y="30.742" width="35.454" height="62.22"/><rect class="cls-14" x="113.036" width="110.419" height="83.611"/><path class="cls-15" d="M223.455,16.645c-31.329-2.725-49.3.414-60.018,3.944-2.109.694-4.829,1.7-9.293,2.877a137.534,137.534,0,0,1-41.108,4.046V8.908H223.455Z"/><rect class="cls-16" x="113.036" width="110.419" height="8.908"/><polygon class="cls-6" points="214.938 74.902 211.803 74.902 211.803 74.005 214.042 74.005 214.042 71.766 214.938 71.766 214.938 74.902"/><path class="cls-6" d="M208.061,74.9h-5.613v-.9h5.613Zm-9.355,0h-5.613v-.9h5.613Zm-9.355,0h-5.613v-.9h5.613ZM180,74.9h-5.613v-.9H180Zm-9.355,0h-5.613v-.9h5.613Zm-9.355,0h-5.613v-.9h5.613Zm-9.355,0h-5.613v-.9h5.613Zm-9.355,0h-5.613v-.9h5.613Zm-9.355,0H127.61v-.9h5.613Z"/><polygon class="cls-6" points="123.868 74.902 120.732 74.902 120.732 71.766 121.628 71.766 121.628 74.005 123.868 74.005 123.868 74.902"/><path class="cls-6" d="M121.628,68h-.9V62.361h.9Zm0-9.4h-.9V52.956h.9Zm0-9.4h-.9V43.552h.9Zm0-9.4h-.9V34.147h.9Zm0-9.4h-.9V24.742h.9Z"/><polygon class="cls-6" points="121.628 20.98 120.732 20.98 120.732 17.844 123.868 17.844 123.868 18.741 121.628 18.741 121.628 20.98"/><path class="cls-6" d="M208.061,18.741h-5.613v-.9h5.613Zm-9.355,0h-5.613v-.9h5.613Zm-9.355,0h-5.613v-.9h5.613Zm-9.355,0h-5.613v-.9H180Zm-9.355,0h-5.613v-.9h5.613Zm-9.355,0h-5.613v-.9h5.613Zm-9.355,0h-5.613v-.9h5.613Zm-9.355,0h-5.613v-.9h5.613Zm-9.355,0H127.61v-.9h5.613Z"/><polygon class="cls-6" points="214.938 20.98 214.042 20.98 214.042 18.741 211.803 18.741 211.803 17.844 214.938 17.844 214.938 20.98"/><path class="cls-6" d="M214.938,68h-.9V62.361h.9Zm0-9.4h-.9V52.956h.9Zm0-9.4h-.9V43.552h.9Zm0-9.4h-.9V34.147h.9Zm0-9.4h-.9V24.742h.9Z"/><rect class="cls-6" x="153.457" y="45.466" width="23.848" height="6.817"/><rect class="cls-6" x="161.973" y="36.95" width="6.817" height="23.849"/><line class="cls-17" x1="155.911" y1="46.373" x2="179.759" y2="46.373"/><rect class="cls-17" x="155.911" y="42.964" width="23.848" height="6.817"/><line class="cls-17" x1="167.835" y1="34.449" x2="167.835" y2="58.297"/><rect class="cls-17" x="164.427" y="34.449" width="6.817" height="23.849"/><circle class="cls-7" cx="120.142" cy="4.421" r="2.315"/><circle class="cls-18" cx="127.695" cy="4.421" r="2.315"/><circle class="cls-9" cx="135.248" cy="4.421" r="2.315"/><rect class="cls-19" x="168.79" y="47.365" width="70.889" height="51.938"/><polygon class="cls-20" points="210.901 63.36 231.73 86.917 190.072 86.917 210.901 63.36"/><polygon class="cls-9" points="189.967 72.277 203.196 86.948 176.739 86.948 189.967 72.277"/><circle class="cls-21" cx="189.967" cy="63.36" r="3.217"/><path class="cls-22" d="M247.145,103.613l4.5-4.5a.714.714,0,0,0-.265-1.177l-18.689-6.675a.714.714,0,0,0-.913.913l6.675,18.689a.714.714,0,0,0,1.177.265l4.5-4.5,9.83,9.83,3.025-3.025Z"/><rect class="cls-13" x="9.097" y="49.781" width="20.015" height="79.549"/><rect class="cls-17" y="58.113" width="22.063" height="82.232"/></g></g></g></svg>